HIERARCHY
ROOT Hips
{
	OFFSET 51.751801 -6.930384 86.764999
	CHANNELS 6 Xposition Yposition Zposition Xrotation Yrotation Zrotation
	JOINT spine
	{
		OFFSET 0.000000 -0.393701 6.846367
		CHANNELS 3 Xrotation Yrotation Zrotation
		JOINT spine1
		{
			OFFSET 0.000000 -0.000001 9.496208
			CHANNELS 3 Xrotation Yrotation Zrotation
			JOINT spine2
			{
				OFFSET 0.000000 -0.000001 9.099091
				CHANNELS 3 Xrotation Yrotation Zrotation
				JOINT Neck
				{
					OFFSET 0.000000 -1.113784 23.361206
					CHANNELS 3 Xrotation Yrotation Zrotation
					JOINT Head
					{
						OFFSET 0.000000 -0.000001 7.058014
						CHANNELS 3 Xrotation Yrotation Zrotation
						End Site
						{
							OFFSET 0.000000 5.634187 17.084396
						}
					}
				}
				JOINT RightShoulder
				{
					OFFSET -3.831360 0.533489 9.826309
					CHANNELS 3 Xrotation Yrotation Zrotation
					JOINT RightArm
					{
						OFFSET 0.000000 -0.000002 12.888107
						CHANNELS 3 Xrotation Yrotation Zrotation
						JOINT RightArmRoll
						{
							OFFSET 0.000000 -0.000001 6.506165
							CHANNELS 3 Xrotation Yrotation Zrotation
							JOINT RightForeArm
							{
								OFFSET 0.000000 -0.000003 18.950104
								CHANNELS 3 Xrotation Yrotation Zrotation
								JOINT RightForeArmRoll
								{
									OFFSET 0.000000 -0.000001 7.300919
									CHANNELS 3 Xrotation Yrotation Zrotation
									JOINT RightHand
									{
										OFFSET 0.000000 -0.000002 14.651398
										CHANNELS 3 Xrotation Yrotation Zrotation
										End Site
										{
											OFFSET 0.000000 0.000000 0.100006
										}
									}
								}
							}
						}
					}
				}
				JOINT LeftShoulder
				{
					OFFSET 3.831360 0.533489 9.826309
					CHANNELS 3 Xrotation Yrotation Zrotation
					JOINT LeftArm
					{
						OFFSET 0.000000 -0.000002 12.888107
						CHANNELS 3 Xrotation Yrotation Zrotation
						JOINT LeftArmRoll
						{
							OFFSET 0.000000 -0.000001 6.506165
							CHANNELS 3 Xrotation Yrotation Zrotation
							JOINT LeftForeArm
							{
								OFFSET 0.000000 -0.000003 18.950104
								CHANNELS 3 Xrotation Yrotation Zrotation
								JOINT LeftForeArmRoll
								{
									OFFSET 0.000000 -0.000001 7.300919
									CHANNELS 3 Xrotation Yrotation Zrotation
									JOINT LeftHand
									{
										OFFSET 0.000000 -0.000002 14.651398
										CHANNELS 3 Xrotation Yrotation Zrotation
										End Site
										{
											OFFSET 0.000000 0.000000 0.100006
										}
									}
								}
							}
						}
					}
				}
			}
		}
	}
	JOINT RightUpLeg
	{
		OFFSET -6.068371 0.933477 -1.112778
		CHANNELS 3 Xrotation Yrotation Zrotation
		JOINT RightUpLegRoll
		{
			OFFSET 0.000000 -0.000003 17.179596
			CHANNELS 3 Xrotation Yrotation Zrotation
			JOINT RightLeg
			{
				OFFSET 0.000000 0.000003 -21.274300
				CHANNELS 3 Xrotation Yrotation Zrotation
				JOINT RightLegRoll
				{
					OFFSET 0.000000 -0.000003 21.343903
					CHANNELS 3 Xrotation Yrotation Zrotation
					JOINT RightFoot
					{
						OFFSET 0.000000 -0.000003 17.765198
						CHANNELS 3 Xrotation Yrotation Zrotation
						JOINT RightToeBase
						{
							OFFSET 0.000000 -0.000002 14.850807
							CHANNELS 3 Xrotation Yrotation Zrotation
							End Site
							{
								OFFSET 0.006294 0.829004 7.192139
							}
						}
					}
				}
			}
		}
	}
	JOINT LeftUpLeg
	{
		OFFSET 6.068371 0.933477 -1.112778
		CHANNELS 3 Xrotation Yrotation Zrotation
		JOINT LeftUpLegRoll
		{
			OFFSET 0.000000 -0.000003 17.179703
			CHANNELS 3 Xrotation Yrotation Zrotation
			JOINT LeftLeg
			{
				OFFSET 0.000000 -0.000003 21.274200
				CHANNELS 3 Xrotation Yrotation Zrotation
				JOINT LeftLegRoll
				{
					OFFSET 0.000000 -0.000004 21.541199
					CHANNELS 3 Xrotation Yrotation Zrotation
					JOINT LeftFoot
					{
						OFFSET 0.000000 -0.000003 17.567902
						CHANNELS 3 Xrotation Yrotation Zrotation
						JOINT LeftToeBase
						{
							OFFSET 0.000000 -0.000002 14.850800
							CHANNELS 3 Xrotation Yrotation Zrotation
							End Site
							{
								OFFSET -0.028210 0.829004 7.192139
							}
						}
					}
				}
			}
		}
	}
}
MOTION
Frames: 13
Frame Time: 0.041667
49.744606 -3.630106 86.642799 -2.220450 -1.757450 5.441747 0.221824 -2.564441 0.634767 4.479449 -5.118391 1.312992 6.127071 -5.102292 1.374355 23.912477 35.276141 -5.758049 17.412708 -20.594163 -0.005848 -1.611671 -26.888658 2.696720 -79.538810 -152.021501 -70.653157 -0.000005 0.000003 -0.000004 39.597195 -8.082425 2.375513 0.000001 0.000007 -3.003571 -5.000238 -7.998753 0.000179 -28.075942 64.271363 32.868895 -88.552433 119.094771 129.467411 0.000001 -0.000022 0.000003 89.264767 -10.191780 11.358429 0.000006 -0.000008 3.000005 -5.000210 7.998712 -0.000160 -13.810441 -178.787100 -1.460798 -179.999991 0.000005 -1.281994 155.119771 -3.881327 -1.235064 -0.000001 0.000006 0.727870 73.542525 7.834860 -0.979435 25.456957 -7.355614 0.000010 -11.911648 179.048928 2.442614 -0.000003 0.000010 -0.921147 -22.882490 0.154500 1.051654 -0.000004 0.000001 -0.481013 72.779736 -5.593058 -5.566541 25.456959 7.355613 -0.000000 
49.754009 -3.639315 86.641296 -2.221770 -1.737304 5.381749 0.209302 -2.556233 0.634656 4.454254 -5.102146 1.312149 6.101855 -5.086063 1.373319 23.825793 35.042166 -5.668553 17.371744 -20.332797 -0.022665 -1.696042 -27.181600 2.522604 -79.271729 -151.709020 -70.991600 -0.000007 0.000004 -0.000006 40.090598 -8.007006 2.442329 -0.000001 0.000007 -3.003559 -5.000241 -7.998751 0.000181 -27.758690 64.115853 32.514272 -88.174197 119.798663 128.739449 0.000002 -0.000025 0.000002 88.860085 -9.848785 10.899582 0.000007 -0.000010 2.999998 -5.000208 7.998712 -0.000159 -13.806866 -178.801635 -1.471575 -179.999991 0.000005 -1.281994 155.129401 -3.877994 -1.234727 0.000000 0.000006 0.727216 73.537361 7.831892 -0.970002 25.456957 -7.355615 0.000010 -11.910505 179.033274 2.425045 -0.000003 0.000011 -0.921124 -22.913400 0.160648 1.052816 -0.000002 0.000001 -0.482445 72.814079 -5.597409 -5.554885 25.456960 7.355613 0.000000 
49.765808 -3.636085 86.634697 -2.222220 -1.717048 5.322100 0.196962 -2.547945 0.634172 4.429392 -5.085765 1.310446 6.076982 -5.069701 1.371416 23.735607 34.800551 -5.579040 17.325176 -20.050526 -0.046664 -1.781268 -27.475462 2.347946 -79.003958 -151.386416 -71.348470 -0.000003 0.000003 -0.000005 40.595544 -7.921028 2.509477 0.000002 0.000009 -3.003543 -5.000239 -7.998754 0.000178 -27.448744 63.950808 32.167999 -87.790607 120.502186 128.026090 0.000002 -0.000022 0.000003 88.473107 -9.516077 10.463195 0.000005 -0.000008 3.000000 -5.000209 7.998711 -0.000156 -13.803092 -178.816183 -1.481276 -179.999991 0.000005 -1.281994 155.140425 -3.874704 -1.234297 0.000001 0.000006 0.726434 73.531733 7.829133 -0.961013 25.456957 -7.355616 0.000010 -11.909563 179.016622 2.407479 -0.000003 0.000010 -0.921121 -22.943300 0.167354 1.053944 -0.000004 0.000002 -0.483853 72.848107 -5.602036 -5.542284 25.456960 7.355613 -0.000000 
49.776409 -3.650934 86.636597 -2.222342 -1.697073 5.263191 0.184926 -2.539468 0.633230 4.405132 -5.068980 1.307723 6.052699 -5.052951 1.368491 23.641008 34.547879 -5.489784 17.270591 -19.739865 -0.080636 -1.868173 -27.770137 2.171873 -78.735655 -151.053759 -71.721849 -0.000005 0.000005 -0.000008 41.112326 -7.825416 2.575938 0.000001 0.000009 -3.003530 -5.000240 -7.998754 0.000177 -27.146310 63.775279 31.830276 -87.403895 121.206010 127.326583 0.000001 -0.000020 0.000002 88.104912 -9.192421 10.048927 0.000005 -0.000008 3.000000 -5.000210 7.998713 -0.000158 -13.798521 -178.829761 -1.489803 -179.999991 0.000005 -1.281994 155.152624 -3.873274 -1.234646 -0.000000 0.000006 0.725513 73.526092 7.826523 -0.952398 25.456955 -7.355615 0.000010 -11.908322 179.000967 2.389558 -0.000002 0.000011 -0.921151 -22.971813 0.174792 1.055014 -0.000003 0.000001 -0.485234 72.881417 -5.607000 -5.528766 25.456959 7.355615 -0.000001 
49.785709 -3.702932 86.645599 -2.222075 -1.677348 5.204874 0.173153 -2.530819 0.631860 4.381363 -5.051850 1.304057 6.028917 -5.035859 1.364617 23.542677 34.286436 -5.400785 17.210002 -19.406369 -0.122301 -1.956592 -28.065025 1.994599 -78.468198 -150.710993 -72.112434 -0.000005 0.000003 -0.000003 41.639415 -7.720429 2.641360 0.000001 0.000007 -3.003520 -5.000241 -7.998752 0.000179 -26.850464 63.590632 31.500006 -87.015845 121.909956 126.639644 0.000002 -0.000024 0.000003 87.751791 -8.876921 9.653868 0.000004 -0.000009 3.000000 -5.000208 7.998712 -0.000161 -13.793257 -178.842356 -1.497336 -179.999991 0.000005 -1.283005 155.165792 -3.871861 -1.233911 0.000001 0.000006 0.724470 73.520375 7.824040 -0.944159 25.456957 -7.355614 0.000010 -11.906778 178.985312 2.371551 -0.000002 0.000011 -0.921214 -22.999124 0.182835 1.056031 -0.000003 0.000001 -0.486588 72.914073 -5.612182 -5.514610 25.456959 7.355614 0.000001 
49.797009 -3.705422 86.644394 -2.221320 -1.657854 5.146982 0.161598 -2.522010 0.630098 4.358004 -5.034407 1.299531 6.005547 -5.018478 1.359883 23.441482 34.018761 -5.312285 17.145114 -19.055444 -0.169547 -2.046387 -28.359625 1.816372 -78.200263 -150.359047 -72.515483 -0.000005 0.000003 -0.000005 42.175305 -7.606289 2.705340 -0.000000 0.000005 -3.003500 -5.000241 -7.998753 0.000179 -26.561612 63.398328 31.177409 -86.628792 122.614217 125.964493 0.000002 -0.000023 0.000003 87.410159 -8.568438 9.275053 0.000006 -0.000008 2.999998 -5.000209 7.998711 -0.000157 -13.787796 -178.853981 -1.504077 -179.999991 0.000005 -1.283005 155.179740 -3.871390 -1.233548 -0.000000 0.000006 0.723324 73.514603 7.821651 -0.936303 25.456957 -7.355615 0.000010 -11.905232 178.970627 2.353358 -0.000003 0.000010 -0.921303 -23.025232 0.191353 1.057007 -0.000003 0.000001 -0.487914 72.946065 -5.617618 -5.499726 25.456959 7.355615 0.000001 
49.807308 -3.696793 86.642395 -2.220009 -1.638600 5.089386 0.150215 -2.513061 0.627979 4.334977 -5.016711 1.294230 5.982496 -5.000846 1.354366 23.338051 33.747128 -5.224253 17.077939 -18.692679 -0.220163 -2.137386 -28.653518 1.637415 -77.932172 -149.998276 -72.929727 -0.000005 0.000003 -0.000005 42.718496 -7.483387 2.767639 0.000001 0.000009 -3.003491 -5.000240 -7.998755 0.000176 -26.278823 63.199809 30.861394 -86.244908 123.318710 125.300244 0.000002 -0.000023 0.000001 87.076477 -8.266003 8.909500 0.000005 -0.000008 3.000000 -5.000209 7.998712 -0.000157 -13.782143 -178.864650 -1.510212 -179.999991 0.000005 -1.283004 155.194370 -3.871845 -1.233558 -0.000000 0.000006 0.722091 73.508750 7.819332 -0.928632 25.456957 -7.355615 0.000010 -11.903485 178.955956 2.335229 -0.000003 0.000010 -0.921414 -23.050348 0.200220 1.057950 -0.000003 0.000001 -0.489213 72.977703 -5.623156 -5.484467 25.456960 7.355613 0.000000 
49.813011 -3.702415 86.636597 -2.218075 -1.619546 5.031910 0.138958 -2.504014 0.625536 4.312182 -4.998781 1.288228 5.959684 -4.982998 1.348151 23.233208 33.473808 -5.136745 17.009980 -18.323704 -0.272118 -2.229418 -28.946215 1.457994 -77.663158 -149.629555 -73.351778 -0.000006 0.000004 -0.000006 43.267486 -7.351969 2.827877 0.000001 0.000008 -3.003481 -5.000239 -7.998759 0.000176 -26.001784 62.996447 30.551405 -85.866249 124.023463 124.645748 0.000001 -0.000023 0.000001 86.747302 -7.968339 8.554487 0.000006 -0.000008 3.000001 -5.000208 7.998713 -0.000155 -13.776697 -178.874335 -1.515923 -179.999991 0.000005 -1.283005 155.209601 -3.872319 -1.233540 -0.000000 0.000006 0.720789 73.502698 7.817065 -0.921141 25.456959 -7.355616 0.000010 -11.901941 178.942241 2.317079 -0.000003 0.000010 -0.921543 -23.074361 0.209312 1.058870 -0.000003 0.000001 -0.490485 73.008841 -5.628739 -5.468942 25.456959 7.355615 0.000001 
49.816010 -3.731645 86.645897 -2.215434 -1.600683 4.974423 0.127779 -2.494885 0.622805 4.289537 -4.980689 1.281612 5.937026 -4.964980 1.341318 23.127552 33.201304 -5.049766 16.943090 -17.953955 -0.323420 -2.322327 -29.237233 1.278345 -77.393475 -149.253143 -73.780537 -0.000003 0.000001 -0.000004 43.820605 -7.212470 2.885844 0.000001 0.000005 -3.003460 -5.000241 -7.998751 0.000179 -25.730016 62.789765 30.246847 -85.495165 124.728297 124.000268 0.000001 -0.000022 0.000003 86.419474 -7.673909 8.207583 0.000005 -0.000007 3.000003 -5.000210 7.998712 -0.000155 -13.771651 -178.884020 -1.521154 -179.999991 0.000005 -1.283005 155.225324 -3.872808 -1.233476 0.000000 0.000006 0.719434 73.496346 7.814867 -0.913618 25.456959 -7.355614 0.000010 -11.900398 178.927556 2.299363 -0.000003 0.000011 -0.921685 -23.097574 0.218498 1.059776 -0.000004 0.000001 -0.491728 73.039482 -5.634400 -5.453345 25.456960 7.355613 -0.000000 
49.826908 -3.740135 86.653908 -2.212004 -1.582021 4.916759 0.116640 -2.485675 0.619816 4.266953 -4.962467 1.274462 5.914427 -4.946849 1.333947 23.021737 32.931972 -4.963302 16.878741 -17.589076 -0.372159 -2.415932 -29.525945 1.098757 -77.122412 -148.870134 -74.212888 -0.000004 0.000004 -0.000003 44.376460 -7.065175 2.941260 -0.000000 0.000006 -3.003453 -5.000241 -7.998755 0.000177 -25.462903 62.580946 29.946900 -85.133862 125.433296 123.362792 0.000002 -0.000021 0.000003 86.089658 -7.381361 7.866064 0.000005 -0.000009 2.999999 -5.000208 7.998712 -0.000159 -13.767301 -178.893719 -1.526111 -179.999991 0.000005 -1.283004 155.241157 -3.873301 -1.232407 0.000000 0.000006 0.718045 73.489864 7.812617 -0.906095 25.456959 -7.355615 0.000010 -11.899252 178.913855 2.281767 -0.000002 0.000011 -0.921837 -23.119892 0.227652 1.060675 -0.000003 0.000001 -0.492943 73.069883 -5.639929 -5.437943 25.456960 7.355612 0.000000 
49.846508 -3.729374 86.648598 -2.207722 -1.563519 4.858763 0.105492 -2.476437 0.616608 4.244341 -4.944152 1.266857 5.891792 -4.928627 1.326121 22.916198 32.668061 -4.877125 16.818569 -17.234748 -0.416432 -2.510061 -29.811966 0.919484 -76.849074 -148.481359 -74.645689 -0.000006 0.000004 -0.000004 44.933472 -6.910429 2.993867 0.000001 0.000006 -3.003440 -5.000241 -7.998753 0.000175 -25.199969 62.371594 29.650917 -84.784675 126.138308 122.732530 0.000002 -0.000023 0.000001 85.754787 -7.088939 7.527422 0.000005 -0.000007 3.000002 -5.000209 7.998712 -0.000156 -13.763957 -178.902448 -1.531215 -179.999991 0.000005 -1.281995 155.257180 -3.873799 -1.232321 -0.000000 0.000006 0.716641 73.483055 7.810380 -0.898446 25.456953 -7.355615 0.000010 -11.898409 178.900140 2.264568 -0.000002 0.000011 -0.921993 -23.141509 0.236648 1.061578 -0.000003 0.000001 -0.494132 73.099949 -5.645359 -5.422839 25.456960 7.355614 0.000000 
49.850609 -3.738575 86.638100 -2.202501 -1.545178 4.800289 0.094285 -2.467167 0.613209 4.221609 -4.925795 1.258879 5.869045 -4.910374 1.317923 22.811703 32.412120 -4.791329 16.764027 -16.896450 -0.454479 -2.604539 -30.094899 0.740808 -76.573797 -148.087421 -75.078204 -0.000006 0.000003 -0.000004 45.490207 -6.748569 3.043464 -0.000001 0.000007 -3.003430 -5.000241 -7.998753 0.000178 -24.940337 62.162931 29.357891 -84.449900 126.843293 122.108619 0.000002 -0.000024 0.000002 85.411830 -6.795037 7.189660 0.000007 -0.000007 2.999998 -5.000211 7.998709 -0.000154 -13.761819 -178.911164 -1.536405 -179.999991 0.000005 -1.281993 155.273177 -3.875202 -1.232653 -0.000000 0.000006 0.715234 73.475992 7.808078 -0.890689 25.456957 -7.355615 0.000010 -11.897962 178.886438 2.247866 -0.000001 0.000011 -0.922149 -23.162425 0.245357 1.062491 -0.000003 0.000001 -0.495291 73.129770 -5.650632 -5.408218 25.456960 7.355615 -0.000000 
49.862007 -3.744994 86.641609 -2.196271 -1.526988 4.741185 0.082982 -2.457898 0.609661 4.198679 -4.907448 1.250610 5.846100 -4.892130 1.309434 22.708613 32.166387 -4.705621 16.716413 -16.579794 -0.484609 -2.699158 -30.374053 0.563032 -76.295078 -147.689522 -75.506334 -0.000008 0.000003 -0.000004 46.045061 -6.579943 3.089840 0.000001 0.000008 -3.003410 -5.000240 -7.998751 0.000178 -24.683337 61.956441 29.066997 -84.131989 127.548114 121.490282 0.000004 -0.000024 0.000004 85.057910 -6.497591 6.850201 0.000006 -0.000008 3.000002 -5.000210 7.998712 -0.000154 -13.761084 -178.918936 -1.542117 -179.999991 0.000005 -1.281994 155.289036 -3.874787 -1.232162 0.000000 0.000006 0.713847 73.468472 7.805743 -0.882607 25.456957 -7.355615 0.000010 -11.898117 178.873720 2.231509 -0.000003 0.000010 -0.922303 -23.182840 0.253653 1.063424 -0.000005 0.000001 -0.496423 73.159509 -5.655630 -5.394160 25.456964 7.355615 0.000000 
